<svg id="Layer_1" data-name="Layer 1" xmlns="http://www.w3.org/2000/svg" viewBox="0 0 440 440"><defs><style>.cls-1{fill:#008c73;}</style></defs><title>sticke_geen</title><path class="cls-1" d="M240.39,25.5A161.65,161.65,0,1,0,402,187.14,161.64,161.64,0,0,0,240.39,25.5ZM358.7,196h-75a45.7,45.7,0,1,1,.34-15.9H358.7a8,8,0,0,1,0,15.9Z"/><path class="cls-1" d="M20.44,229.36c10.4-2.82,20.29,1.7,23.4,13.15a20.25,20.25,0,0,1-2.46,16.26l-6.66-4.58a12.51,12.51,0,0,0,1.2-9.53c-1.38-5.1-6.42-8.28-13.08-6.47-5.8,1.58-9.57,6.45-7.91,12.55a12.87,12.87,0,0,0,3.25,5.78l4.24-1.15-1.89-7,7-1.89,4.08,15-16.09,4.37c-3.41-2.59-6.76-7.53-8.27-13.08C4.4,242.5,8.79,232.53,20.44,229.36Z"/><path class="cls-1" d="M37.78,263.76l3.32,7.46-2.72,1.21,0,.1a9.92,9.92,0,0,1,6.28,5.62c2.15,4.83,1.33,9.43-6.08,12.73l-14,6.23-3.31-7.46,12.19-5.42c3.87-1.72,4.39-3.5,3.31-5.94s-3.68-3.52-7.32-1.9l-11.76,5.23-3.32-7.46Z"/><path class="cls-1" d="M38.23,295.79c6.62-4.09,14.23-2.22,18.57,4.8,4.23,6.85,2.67,14.58-4,18.72s-14.27,2.06-18.5-4.78C29.92,307.5,31.65,299.85,38.23,295.79Zm10.19,16.5c3-1.87,3.88-5.17,2.2-7.88s-5.07-3.44-8-1.59-3.88,5.15-2.18,7.91S45.44,314.12,48.42,312.29Z"/><path class="cls-1" d="M46.9,327.05l6.51-.28a9.8,9.8,0,0,0,1.91,7c1,1.27,2,1.57,2.71,1s.58-1.47-.62-4.58c-1.64-4.18-2.34-8.43,1.51-11.48,4.06-3.22,9-1.75,12.34,2.43a15.07,15.07,0,0,1,3.51,9.57l-6.87.51a8.55,8.55,0,0,0-1.45-6.13c-.58-.74-1.6-1.34-2.37-.72s-.49,1.58.41,4.14c2,5.63,2.76,9-1.17,12.08-3.74,3-8.55,2.44-12.9-3.06A15.23,15.23,0,0,1,46.9,327.05Z"/><path class="cls-1" d="M79.53,331.73l5.56,6-18.7,17.45-5.56-6Zm5.24-6a4.9,4.9,0,0,1,6.67,7.15,4.89,4.89,0,0,1-6.67-7.15Z"/><path class="cls-1" d="M71.67,356.12l6.39-1.33a9.82,9.82,0,0,0,3,6.64c1.2,1.1,2.2,1.24,2.84.54s.34-1.53-1.35-4.42c-2.28-3.86-3.65-7.94-.33-11.57,3.49-3.83,8.63-3.17,12.57.43a15.09,15.09,0,0,1,5,8.89l-6.7,1.59a8.57,8.57,0,0,0-2.41-5.81c-.7-.64-1.79-1.07-2.46-.34-.53.58-.23,1.64,1.07,4,2.86,5.24,4.15,8.4.76,12.11-3.21,3.52-8.05,3.77-13.22-1A15.28,15.28,0,0,1,71.67,356.12Z"/><path class="cls-1" d="M100.68,378.4l7.68-2.45a12.45,12.45,0,0,0,5,8.45c2.46,1.6,4.31,1,5.21-.36,1.11-1.71.49-3.17-2.26-6.63-3.69-4.69-7-10-3-16.15,3.35-5.18,10.31-6.23,16.16-2.57a19.16,19.16,0,0,1,8.21,11l-7.59,2.7c-1.32-3.84-2.72-5.93-4.48-7.06s-3.49-1-4.46.54-.37,3,2.16,6.5c4.13,5.65,7.44,9.78,3.56,15.8-4.74,7.34-12.73,5.93-17.91,2.58A18.93,18.93,0,0,1,100.68,378.4Z"/><path class="cls-1" d="M130.33,388.64c3.34-7.1,10.25-9.87,16.21-7.05a9.14,9.14,0,0,1,5,5.89h.12l1.13-2.42,7.43,3.5-10.89,23.15-7.05-3.33,1.13-2.41-.07-.09a8.34,8.34,0,0,1-7.75-.12C129.28,402.78,127,395.78,130.33,388.64Zm17.37,8.18c1.49-3.18.45-6.5-2.29-7.79s-6-.16-7.56,3.15-.53,6.4,2.41,7.79C142.91,401.21,146.14,400.13,147.7,396.82Z"/><path class="cls-1" d="M162.85,396.26l-2.33-.79,2.15-6.24,2.33.8,1.31-3.81c2.06-6,6.19-7.83,11-6.15a12.81,12.81,0,0,1,5.89,4.12l-3.36,5.1a8.27,8.27,0,0,0-2.71-1.93c-1.39-.48-2.52-.09-3.18,1.84l-1.21,3.51,4.6,1.59-2.15,6.23-4.6-1.59-6.19,18-7.77-2.67Z"/><path class="cls-1" d="M198.91,415.09,182,411c-.17,3,1.87,5,4.92,5.75a8.11,8.11,0,0,0,6.45-1.31l3.46,5.77c-2.7,2.1-6.61,3.16-12.26,1.81-7.54-1.8-11.79-8.3-9.95-16,1.8-7.53,8.37-11.61,15.9-9.82,7,1.68,10.92,8.15,9.16,15.53C199.46,413.44,199.08,414.59,198.91,415.09Zm-15.77-8.77,9.32,2.22c.07-2.56-1.19-4.48-3.58-5.05A4.82,4.82,0,0,0,183.14,406.32Z"/></svg>